<?xml version="1.0" standalone="no"?>
<!DOCTYPE svg PUBLIC "-//W3C//DTD SVG 20010904//EN"
 "http://www.w3.org/TR/2001/REC-SVG-20010904/DTD/svg10.dtd">
<svg version="1.0" xmlns="http://www.w3.org/2000/svg"
 width="512.000000pt" height="512.000000pt" viewBox="0 0 512.000000 512.000000"
 preserveAspectRatio="xMidYMid meet">

<g transform="translate(0.000000,512.000000) scale(0.100000,-0.100000)"
fill="#000000" stroke="none">
<path d="M2426 4669 c-72 -25 -128 -62 -185 -124 -171 -185 -128 -494 88 -636
l24 -15 -102 -199 c-244 -478 -432 -669 -710 -727 -81 -17 -120 -19 -246 -15
-123 5 -324 29 -420 52 -15 3 -23 18 -32 56 -56 235 -341 322 -526 160 -20
-18 -51 -62 -68 -97 -69 -140 -29 -303 97 -394 26 -18 65 -38 88 -45 l41 -12
327 -843 c346 -895 360 -926 460 -1015 66 -61 157 -114 242 -143 l81 -27 940
-3 c1024 -3 1025 -3 1152 53 69 31 170 102 212 150 80 92 106 150 430 986
l326 842 41 12 c54 16 127 68 158 114 43 62 58 111 59 188 0 61 -4 82 -32 137
-89 181 -305 236 -473 120 -48 -33 -104 -116 -120 -176 -7 -27 -19 -50 -28
-53 -8 -2 -94 -12 -190 -21 -283 -26 -486 -5 -636 67 -72 34 -188 123 -251
191 -107 117 -240 323 -347 536 l-54 108 46 35 c87 64 150 175 166 294 8 56
-10 160 -39 222 -26 59 -90 132 -151 173 -100 69 -251 89 -368 49z m236 -1426
c244 -363 451 -541 723 -621 167 -50 399 -70 625 -54 74 6 136 9 138 8 7 -7
-543 -1406 -563 -1432 -14 -18 -44 -41 -68 -53 -43 -21 -49 -21 -955 -21
-1002 0 -948 -3 -1013 62 -29 29 -72 133 -302 727 -148 381 -267 694 -265 696
2 2 35 0 73 -5 310 -40 600 -14 799 71 216 92 422 299 628 632 45 75 84 135
84 134 1 -1 44 -66 96 -144z"/>
</g>
</svg>
